<svg xmlns="http://www.w3.org/2000/svg" version="1.1" xmlns:xlink="http://www.w3.org/1999/xlink" xmlns:svgjs="http://svgjs.dev/svgjs" width="128" height="128" viewBox="0 0 128 128"><g transform="matrix(0.8046875,0,0,0.8046875,12.5,12.5)"><svg viewBox="0 0 225 225" data-background-color="#dedede" preserveAspectRatio="xMidYMid meet" height="128" width="128" xmlns="http://www.w3.org/2000/svg" xmlns:xlink="http://www.w3.org/1999/xlink"><g id="tight-bounds" transform="matrix(1,0,0,1,0,0)"><svg viewBox="0 0 225 225" height="225" width="225"><g><svg></svg></g><g><svg viewBox="0 0 225 225" height="225" width="225"><g><path d="M15.072 56.25l97.428-56.25 97.428 56.25 0 112.5-97.428 56.25-97.428-56.25z" fill="#ffffff" fill-rule="nonzero" stroke="none" stroke-width="1" stroke-linecap="butt" stroke-linejoin="miter" stroke-miterlimit="10" stroke-dasharray="" stroke-dashoffset="0" font-family="none" font-weight="none" font-size="none" text-anchor="none" style="mix-blend-mode: normal" data-fill-palette-color="tertiary"></path></g><g transform="matrix(1,0,0,1,84.69,83.25155172413794)"><svg viewBox="0 0 55.62 58.49689655172413" height="58.49689655172413" width="55.62"><g><svg viewBox="0 0 55.62 58.49689655172413" height="58.49689655172413" width="55.62"><g><svg viewBox="0 0 55.62 58.49689655172413" height="58.49689655172413" width="55.62"><g><svg viewBox="0 0 55.62 58.49689655172413" height="58.49689655172413" width="55.62"><g><svg viewBox="0 0 55.62 58.49689655172413" height="58.49689655172413" width="55.62"><g transform="matrix(1,0,0,1,0,0)"><svg width="55.62" viewBox="2.15 -35.8 34.800000000000004 36.6" height="58.49689655172413" data-palette-color="#dedede"><path d="M19.15 0.8L19.15 0.8Q14.05 0.8 10.2-1.4 6.35-3.6 4.25-7.58 2.15-11.55 2.15-16.85L2.15-16.85Q2.15-20.35 3.23-23.7 4.3-27.05 6.48-29.8 8.65-32.55 11.93-34.18 15.2-35.8 19.55-35.8L19.55-35.8Q21.2-35.8 23-35.5 24.8-35.2 26.53-34.6 28.25-34 29.65-33.15L29.65-33.15 29.45-35.45 32.55-35.45 32.55-23.95 30.25-23.95Q30-26.95 28.58-29.03 27.15-31.1 24.93-32.18 22.7-33.25 20-33.25L20-33.25Q17.35-33.25 15.18-32.08 13-30.9 11.4-28.83 9.8-26.75 8.93-23.95 8.05-21.15 8.05-17.95L8.05-17.95Q8.05-13.35 9.58-9.78 11.1-6.2 13.9-4.15 16.7-2.1 20.45-2.1L20.45-2.1Q21.65-2.1 23.08-2.33 24.5-2.55 25.93-3.03 27.35-3.5 28.5-4.25L28.5-4.25 28.5-9.85Q28.5-11.1 28.53-12.33 28.55-13.55 28.55-14.6L28.55-14.6Q27.75-14.55 26.75-14.5 25.75-14.45 25-14.4L25-14.4 25-17.15 36.95-17.15 36.95-14.95Q35.75-14.95 35.02-14.4 34.3-13.85 33.98-13.03 33.65-12.2 33.55-11.28 33.45-10.35 33.45-9.55L33.45-9.55 33.45-1.75 32.15-1.75Q31.1-1.75 29.7-1.43 28.3-1.1 26.55-0.45L26.55-0.45Q25 0.1 23 0.45 21 0.8 19.15 0.8Z" opacity="1" transform="matrix(1,0,0,1,0,0)" fill="#000000" class="undefined-text-0" data-fill-palette-color="quaternary" id="text-0"></path></svg></g></svg></g></svg></g></svg></g></svg></g></svg></g></svg></g><defs></defs></svg><rect width="225" height="225" fill="none" stroke="none" visibility="hidden"></rect></g></svg></g></svg>